<svg height="512" viewBox="0 0 64 64" width="512" xmlns="http://www.w3.org/2000/svg"><g id="Layer_12" data-name="Layer 12"><path d="m2 2h42v56h-42z" fill="#c7e2fb"/><path d="m2 50.39c21.56-3.5 38-21.81 38-43.89a44.6 44.6 0 0 0 -.23-4.5h-37.77z" fill="#ebf7fe"/><path d="m14 12h-2a2 2 0 0 0 -2 2 2 2 0 0 0 2 2h1" fill="#f7d881"/><path d="m22 40h40v22h-40z" fill="#78b75b"/><path d="m26 44h32v14h-32z" fill="#ebf7fe"/><circle cx="42" cy="51" fill="#78b75b" r="7"/><path d="m45 48h-2v-2h-2v2h-1a1 1 0 0 0 -.92.62 1 1 0 0 0 .21 1.09l2.3 2.29h-2.59v2h2v2h2v-2h1a1 1 0 0 0 .92-.62 1 1 0 0 0 -.21-1.09l-2.3-2.29h2.59z" fill="#fff"/><path d="m36 26h-26v-3.54a4.43 4.43 0 0 1 .86-2.63 4.45 4.45 0 0 1 3.6-1.83h16.8a4.45 4.45 0 0 1 3.25 1.41l.29.3a4.49 4.49 0 0 1 1.2 3.05z" fill="#f7d881"/><path d="m14.46 18h16.8a4.61 4.61 0 0 1 1.73.35l-2.36-8.21a3 3 0 0 0 -2.86-2.14h-9.53a3 3 0 0 0 -2.88 2.14l-2.36 8.1a4.69 4.69 0 0 1 1.46-.24z" fill="#c1c8d1"/><path d="m14.82 12h-2.82a2 2 0 0 0 0 4h1.65z" fill="#f7d881"/><path d="m34 12h-2.82l1.14 4h1.68a2 2 0 0 0 0-4z" fill="#f7d881"/><g fill="#c1c8d1"><path d="m12 26v2a2 2 0 0 0 2 2h2a2 2 0 0 0 2-2v-2z"/><path d="m28 26v2a2 2 0 0 0 2 2h2a2 2 0 0 0 2-2v-2z"/><circle cx="16" cy="22" r="2"/><circle cx="30" cy="22" r="2"/><path d="m6 36h6v6h-6z"/><path d="m6 46h6v6h-6z"/></g><path d="m4.14 36.5h12.73v2h-12.73z" fill="#f7d881" transform="matrix(.707 -.707 .707 .707 -23.44 18.41)"/><path d="m4.34 47h11.31v2h-11.31z" fill="#f7d881" transform="matrix(.707 -.707 .707 .707 -31.01 21.13)"/><path d="m15 46h7v2h-7z" fill="#c1c8d1"/><path d="m15 50h7v2h-7z" fill="#c1c8d1"/><path d="m15 36h25v2h-25z" fill="#c1c8d1"/><path d="m15 40h7v2h-7z" fill="#c1c8d1"/></g></svg>